<svg width="881" height="523" viewBox="0 0 881 523" fill="none" xmlns="http://www.w3.org/2000/svg">
<g clip-path="url(#clip0_1_2)">
<path d="M643.526 65.3197C643.526 65.3197 637.84 75.7779 636.17 76.2282C634.5 76.6786 630.238 115.804 653.242 110.758C676.246 105.712 667.82 93.4448 667.82 93.4448C667.82 93.4448 668.218 79.9341 669.099 79.0282C669.98 78.1224 644.516 64.8347 644.516 64.8347L643.526 65.3197Z" fill="#FFB9B9"/>
<path d="M794.475 215.583H87.69C84.7074 215.611 81.8565 216.816 79.7573 218.935C77.6581 221.054 76.4804 223.916 76.4804 226.898C76.4804 229.881 77.6581 232.743 79.7573 234.862C81.8565 236.981 84.7074 238.186 87.69 238.214H107.71V508.914C107.738 511.897 108.943 514.748 111.062 516.847C113.181 518.946 116.043 520.124 119.026 520.124C122.008 520.124 124.87 518.946 126.989 516.847C129.108 514.748 130.313 511.897 130.341 508.914L130.513 238.214H750.084V508.914C750.084 511.915 751.276 514.793 753.398 516.915C755.52 519.037 758.398 520.229 761.4 520.229C764.401 520.229 767.279 519.037 769.401 516.915C771.523 514.793 772.715 511.915 772.715 508.914L776.007 238.214H794.476C797.459 238.186 800.31 236.981 802.409 234.862C804.508 232.743 805.686 229.881 805.686 226.898C805.686 223.916 804.508 221.054 802.409 218.935C800.31 216.816 797.459 215.611 794.476 215.583H794.475Z" fill="#CCCCCC"/>
<path d="M210.202 165.163V213.081H90.1491C83.8203 213.26 77.6776 210.928 73.0618 206.595C68.446 202.261 65.7319 196.278 65.5118 189.95C65.2916 183.623 67.5834 177.465 71.8869 172.821C76.1904 168.177 82.1562 165.424 88.4821 165.163C89.0374 165.144 89.5931 165.144 90.1491 165.163H210.202Z" fill="#F2F2F2"/>
<path d="M213.151 212.713C213.151 213.202 212.956 213.67 212.611 214.016C212.265 214.361 211.797 214.556 211.308 214.556H88.008C81.3113 214.556 74.8889 211.896 70.1536 207.16C65.4183 202.425 62.758 196.003 62.758 189.306C62.758 182.609 65.4183 176.187 70.1536 171.452C74.8889 166.716 81.3113 164.056 88.008 164.056H211.308C211.797 164.056 212.266 164.25 212.611 164.596C212.957 164.941 213.151 165.41 213.151 165.899C213.151 166.388 212.957 166.857 212.611 167.202C212.266 167.548 211.797 167.742 211.308 167.742H88.008C82.2891 167.742 76.8045 170.014 72.7607 174.058C68.7168 178.101 66.445 183.586 66.445 189.305C66.445 195.024 68.7168 200.508 72.7607 204.552C76.8045 208.596 82.2891 210.868 88.008 210.868H211.308C211.55 210.868 211.79 210.916 212.014 211.009C212.237 211.102 212.44 211.237 212.612 211.409C212.783 211.58 212.918 211.783 213.011 212.007C213.104 212.231 213.151 212.471 213.151 212.713Z" fill="#E67E22"/>
<path d="M210.202 176.222H81.192C81.0975 176.218 81.0081 176.178 80.9423 176.11C80.8765 176.042 80.8393 175.951 80.8384 175.857C80.8375 175.762 80.873 175.671 80.9375 175.602C81.002 175.533 81.0906 175.491 81.185 175.485H210.202C210.296 175.49 210.385 175.531 210.45 175.599C210.516 175.668 210.552 175.759 210.552 175.853C210.552 175.948 210.516 176.039 210.45 176.108C210.385 176.176 210.296 176.217 210.202 176.222Z" fill="#CCCCCC"/>
<path d="M210.202 185.068H81.192C81.142 185.071 81.092 185.064 81.0449 185.047C80.9978 185.03 80.9546 185.004 80.918 184.97C80.8814 184.935 80.8521 184.894 80.8319 184.848C80.8117 184.803 80.8011 184.753 80.8006 184.703C80.8001 184.653 80.8098 184.604 80.8291 184.557C80.8485 184.511 80.877 184.469 80.9129 184.435C80.9489 184.4 80.9915 184.373 81.0383 184.355C81.0851 184.337 81.135 184.329 81.185 184.331H210.202C210.296 184.336 210.385 184.377 210.45 184.445C210.516 184.514 210.552 184.605 210.552 184.7C210.552 184.794 210.516 184.885 210.45 184.954C210.385 185.022 210.296 185.063 210.202 185.068Z" fill="#CCCCCC"/>
<path d="M210.202 193.914H81.192C81.0975 193.91 81.0081 193.87 80.9423 193.802C80.8765 193.734 80.8393 193.643 80.8384 193.549C80.8375 193.454 80.873 193.363 80.9375 193.294C81.002 193.225 81.0906 193.183 81.185 193.177H210.202C210.296 193.182 210.385 193.223 210.45 193.291C210.516 193.36 210.552 193.451 210.552 193.545C210.552 193.64 210.516 193.731 210.45 193.8C210.385 193.868 210.296 193.909 210.202 193.914Z" fill="#CCCCCC"/>
<path d="M210.202 202.761H81.192C81.142 202.764 81.092 202.757 81.0449 202.74C80.9978 202.723 80.9546 202.697 80.918 202.663C80.8814 202.628 80.8521 202.587 80.8319 202.541C80.8117 202.496 80.8011 202.446 80.8006 202.396C80.8001 202.346 80.8098 202.296 80.8291 202.25C80.8485 202.204 80.877 202.162 80.9129 202.128C80.9489 202.093 80.9915 202.066 81.0383 202.048C81.0851 202.03 81.135 202.022 81.185 202.024H210.202C210.296 202.029 210.385 202.07 210.45 202.138C210.516 202.207 210.552 202.298 210.552 202.392C210.552 202.487 210.516 202.578 210.45 202.646C210.385 202.715 210.296 202.756 210.202 202.761Z" fill="#CCCCCC"/>
<path d="M187.571 114.679V162.597H67.518C61.1892 162.776 55.0466 160.444 50.4308 156.111C45.815 151.777 43.1008 145.794 42.8807 139.466C42.6606 133.139 44.9524 126.981 49.2559 122.337C53.5594 117.693 59.5251 114.94 65.851 114.679C66.4064 114.66 66.962 114.66 67.518 114.679H187.571Z" fill="#F2F2F2"/>
<path d="M190.52 162.229C190.52 162.718 190.325 163.186 189.98 163.532C189.634 163.877 189.166 164.072 188.677 164.072H65.377C58.6803 164.072 52.2578 161.412 47.5226 156.676C42.7873 151.941 40.127 145.519 40.127 138.822C40.127 132.125 42.7873 125.703 47.5226 120.968C52.2578 116.232 58.6803 113.572 65.377 113.572H188.677C188.919 113.572 189.159 113.62 189.382 113.712C189.606 113.805 189.809 113.941 189.98 114.112C190.151 114.283 190.287 114.486 190.38 114.71C190.472 114.933 190.52 115.173 190.52 115.415C190.52 115.657 190.472 115.897 190.38 116.12C190.287 116.344 190.151 116.547 189.98 116.718C189.809 116.889 189.606 117.025 189.382 117.118C189.159 117.21 188.919 117.258 188.677 117.258H65.377C59.6582 117.258 54.1735 119.53 50.1297 123.574C46.0858 127.617 43.814 133.102 43.814 138.821C43.814 144.54 46.0858 150.024 50.1297 154.068C54.1735 158.112 59.6582 160.384 65.377 160.384H188.677C189.166 160.384 189.634 160.579 189.98 160.924C190.325 161.27 190.52 161.738 190.52 162.227V162.229Z" fill="#090814"/>
<path d="M187.571 125.737H58.561C58.511 125.74 58.461 125.733 58.4139 125.716C58.3668 125.699 58.3236 125.673 58.287 125.639C58.2504 125.604 58.2211 125.563 58.2009 125.517C58.1807 125.472 58.1701 125.422 58.1696 125.372C58.1692 125.322 58.1789 125.273 58.1982 125.226C58.2175 125.18 58.246 125.138 58.2819 125.104C58.3179 125.069 58.3605 125.042 58.4073 125.024C58.4541 125.006 58.504 124.998 58.554 125H187.571C187.621 124.997 187.671 125.005 187.718 125.022C187.765 125.04 187.808 125.066 187.844 125.101C187.881 125.135 187.909 125.177 187.929 125.223C187.949 125.269 187.959 125.318 187.959 125.369C187.959 125.419 187.949 125.468 187.929 125.514C187.909 125.56 187.881 125.602 187.844 125.636C187.808 125.671 187.765 125.697 187.718 125.715C187.671 125.732 187.621 125.74 187.571 125.737Z" fill="#CCCCCC"/>
<path d="M187.571 134.583H58.561C58.511 134.586 58.461 134.579 58.4139 134.562C58.3668 134.545 58.3236 134.519 58.287 134.485C58.2504 134.45 58.2211 134.409 58.2009 134.363C58.1807 134.318 58.1701 134.268 58.1696 134.218C58.1692 134.168 58.1789 134.119 58.1982 134.072C58.2175 134.026 58.246 133.984 58.2819 133.95C58.3179 133.915 58.3605 133.888 58.4073 133.87C58.4541 133.852 58.504 133.844 58.554 133.846H187.571C187.621 133.843 187.671 133.851 187.718 133.868C187.765 133.886 187.808 133.912 187.844 133.947C187.881 133.981 187.909 134.023 187.929 134.069C187.949 134.115 187.959 134.164 187.959 134.214C187.959 134.265 187.949 134.314 187.929 134.36C187.909 134.406 187.881 134.448 187.844 134.482C187.808 134.517 187.765 134.543 187.718 134.561C187.671 134.578 187.621 134.586 187.571 134.583Z" fill="#CCCCCC"/>
<path d="M187.571 143.43H58.561C58.511 143.433 58.461 143.426 58.4139 143.409C58.3668 143.392 58.3236 143.366 58.287 143.332C58.2504 143.297 58.2211 143.256 58.2009 143.21C58.1807 143.165 58.1701 143.115 58.1696 143.065C58.1692 143.015 58.1789 142.966 58.1982 142.919C58.2175 142.873 58.246 142.831 58.2819 142.797C58.3179 142.762 58.3605 142.735 58.4073 142.717C58.4541 142.699 58.504 142.691 58.554 142.693H187.571C187.621 142.69 187.671 142.698 187.718 142.715C187.765 142.733 187.808 142.759 187.844 142.794C187.881 142.828 187.909 142.87 187.929 142.916C187.949 142.962 187.959 143.011 187.959 143.062C187.959 143.112 187.949 143.161 187.929 143.207C187.909 143.253 187.881 143.295 187.844 143.329C187.808 143.364 187.765 143.39 187.718 143.408C187.671 143.425 187.621 143.433 187.571 143.43Z" fill="#CCCCCC"/>
<path d="M187.571 152.276H58.561C58.511 152.279 58.461 152.272 58.4139 152.255C58.3668 152.238 58.3236 152.212 58.287 152.178C58.2504 152.143 58.2211 152.102 58.2009 152.056C58.1807 152.011 58.1701 151.961 58.1696 151.911C58.1692 151.861 58.1789 151.812 58.1982 151.765C58.2175 151.719 58.246 151.677 58.2819 151.643C58.3179 151.608 58.3605 151.581 58.4073 151.563C58.4541 151.545 58.504 151.537 58.554 151.539H187.571C187.621 151.536 187.671 151.544 187.718 151.561C187.765 151.579 187.808 151.605 187.844 151.64C187.881 151.674 187.909 151.716 187.929 151.762C187.949 151.808 187.959 151.857 187.959 151.908C187.959 151.958 187.949 152.007 187.929 152.053C187.909 152.099 187.881 152.141 187.844 152.175C187.808 152.21 187.765 152.236 187.718 152.254C187.671 152.271 187.621 152.279 187.571 152.276Z" fill="#CCCCCC"/>
<path d="M327.229 385.144V343.364C327.229 341.517 326.495 339.746 325.189 338.441C323.884 337.135 322.113 336.401 320.266 336.401H161.848C160.001 336.401 158.23 337.135 156.925 338.441C155.619 339.746 154.885 341.517 154.885 343.364V385.144H327.229Z" fill="#CCCCCC"/>
<path d="M327.229 400.813H154.885V454.779H327.229V400.813Z" fill="#CCCCCC"/>
<path d="M154.885 470.447V512.227C154.885 514.074 155.619 515.845 156.924 517.151C158.23 518.457 160.001 519.191 161.848 519.191H320.265C322.112 519.191 323.883 518.457 325.189 517.152C326.494 515.846 327.228 514.075 327.228 512.228V470.447H154.885Z" fill="#CCCCCC"/>
<path d="M240.187 367.738C243.072 367.738 245.41 365.4 245.41 362.515C245.41 359.63 243.072 357.292 240.187 357.292C237.302 357.292 234.964 359.63 234.964 362.515C234.964 365.4 237.302 367.738 240.187 367.738Z" fill="white"/>
<path d="M240.187 437.372C243.072 437.372 245.41 435.034 245.41 432.149C245.41 429.264 243.072 426.926 240.187 426.926C237.302 426.926 234.964 429.264 234.964 432.149C234.964 435.034 237.302 437.372 240.187 437.372Z" fill="white"/>
<path d="M240.467 505.532C243.352 505.532 245.69 503.194 245.69 500.309C245.69 497.424 243.352 495.086 240.467 495.086C237.582 495.086 235.244 497.424 235.244 500.309C235.244 503.194 237.582 505.532 240.467 505.532Z" fill="white"/>
<path d="M307.689 288.764V336.682H187.636C184.478 336.812 181.325 336.316 178.359 335.222C175.393 334.129 172.673 332.46 170.354 330.311C168.036 328.163 166.166 325.577 164.851 322.702C163.535 319.828 162.802 316.722 162.692 313.563C162.582 310.404 163.098 307.254 164.209 304.295C165.321 301.336 167.007 298.626 169.171 296.322C171.334 294.017 173.931 292.162 176.814 290.865C179.697 289.568 182.807 288.854 185.967 288.764C186.523 288.745 187.079 288.745 187.636 288.764H307.689Z" fill="#F2F2F2"/>
<path d="M310.639 336.313C310.639 336.802 310.445 337.27 310.099 337.616C309.753 337.961 309.285 338.156 308.796 338.156H185.498C178.801 338.16 172.377 335.504 167.639 330.771C162.901 326.039 160.237 319.618 160.233 312.921C160.229 306.224 162.886 299.8 167.618 295.062C172.35 290.324 178.771 287.66 185.468 287.656H308.796C309.285 287.656 309.754 287.85 310.099 288.196C310.445 288.541 310.639 289.01 310.639 289.499C310.639 289.988 310.445 290.457 310.099 290.802C309.754 291.148 309.285 291.342 308.796 291.342H185.498C179.779 291.342 174.295 293.614 170.251 297.658C166.207 301.702 163.935 307.186 163.935 312.905C163.935 318.624 166.207 324.108 170.251 328.152C174.295 332.196 179.779 334.468 185.498 334.468H308.798C309.287 334.469 309.755 334.664 310.1 335.009C310.446 335.355 310.639 335.824 310.639 336.313Z" fill="#090814"/>
<path d="M307.69 299.822H178.68C178.63 299.825 178.58 299.818 178.533 299.801C178.486 299.784 178.443 299.758 178.406 299.724C178.369 299.689 178.34 299.648 178.32 299.602C178.3 299.557 178.289 299.507 178.289 299.457C178.288 299.407 178.298 299.358 178.317 299.311C178.336 299.265 178.365 299.223 178.401 299.189C178.437 299.154 178.48 299.127 178.526 299.109C178.573 299.091 178.623 299.083 178.673 299.085H307.69C307.74 299.082 307.79 299.09 307.837 299.107C307.884 299.125 307.927 299.151 307.963 299.186C308 299.22 308.029 299.262 308.048 299.308C308.068 299.354 308.078 299.403 308.078 299.454C308.078 299.504 308.068 299.553 308.048 299.599C308.029 299.645 308 299.687 307.963 299.721C307.927 299.756 307.884 299.782 307.837 299.8C307.79 299.817 307.74 299.825 307.69 299.822Z" fill="#CCCCCC"/>
<path d="M307.69 308.669H178.68C178.63 308.672 178.58 308.665 178.533 308.648C178.486 308.631 178.443 308.605 178.406 308.571C178.369 308.536 178.34 308.495 178.32 308.449C178.3 308.404 178.289 308.354 178.289 308.304C178.288 308.254 178.298 308.205 178.317 308.158C178.336 308.112 178.365 308.07 178.401 308.036C178.437 308.001 178.48 307.974 178.526 307.956C178.573 307.938 178.623 307.93 178.673 307.932H307.69C307.74 307.929 307.79 307.937 307.837 307.954C307.884 307.972 307.927 307.998 307.963 308.033C308 308.067 308.029 308.109 308.048 308.155C308.068 308.201 308.078 308.25 308.078 308.3C308.078 308.351 308.068 308.4 308.048 308.446C308.029 308.492 308 308.534 307.963 308.568C307.927 308.603 307.884 308.629 307.837 308.647C307.79 308.664 307.74 308.672 307.69 308.669Z" fill="#CCCCCC"/>
<path d="M307.69 317.514H178.68C178.63 317.517 178.58 317.51 178.533 317.493C178.486 317.476 178.443 317.45 178.406 317.416C178.369 317.381 178.34 317.34 178.32 317.294C178.3 317.249 178.289 317.199 178.289 317.149C178.288 317.099 178.298 317.05 178.317 317.003C178.336 316.957 178.365 316.915 178.401 316.881C178.437 316.846 178.48 316.819 178.526 316.801C178.573 316.783 178.623 316.775 178.673 316.777H307.69C307.74 316.774 307.79 316.782 307.837 316.799C307.884 316.817 307.927 316.843 307.963 316.878C308 316.912 308.029 316.954 308.048 317C308.068 317.046 308.078 317.095 308.078 317.146C308.078 317.196 308.068 317.245 308.048 317.291C308.029 317.337 308 317.379 307.963 317.413C307.927 317.448 307.884 317.474 307.837 317.492C307.79 317.509 307.74 317.517 307.69 317.514Z" fill="#CCCCCC"/>
<path d="M307.69 326.361H178.68C178.63 326.364 178.58 326.357 178.533 326.34C178.486 326.323 178.443 326.297 178.406 326.263C178.369 326.228 178.34 326.187 178.32 326.141C178.3 326.096 178.289 326.046 178.289 325.996C178.288 325.946 178.298 325.897 178.317 325.85C178.336 325.804 178.365 325.762 178.401 325.728C178.437 325.693 178.48 325.666 178.526 325.648C178.573 325.63 178.623 325.622 178.673 325.624H307.69C307.74 325.621 307.79 325.629 307.837 325.646C307.884 325.664 307.927 325.69 307.963 325.725C308 325.759 308.029 325.801 308.048 325.847C308.068 325.893 308.078 325.942 308.078 325.993C308.078 326.043 308.068 326.092 308.048 326.138C308.029 326.184 308 326.226 307.963 326.26C307.927 326.295 307.884 326.321 307.837 326.339C307.79 326.356 307.74 326.364 307.69 326.361Z" fill="#CCCCCC"/>
<path d="M166.694 98.693H111.994C111.474 98.692 110.961 98.8111 110.494 99.041L96.6891 105.952C96.2347 106.145 95.8473 106.468 95.5749 106.879C95.3025 107.291 95.1573 107.774 95.1573 108.267C95.1573 108.761 95.3025 109.244 95.5749 109.656C95.8473 110.067 96.2347 110.39 96.6891 110.583L110.494 117.494C110.961 117.724 111.474 117.843 111.994 117.842H166.694C167.448 117.885 168.188 117.63 168.755 117.132C169.322 116.633 169.67 115.931 169.723 115.178V101.357C169.67 100.604 169.322 99.902 168.755 99.4034C168.188 98.9048 167.448 98.6496 166.694 98.693Z" fill="#090814"/>
<path d="M169.723 101.357V115.178C169.67 115.931 169.322 116.633 168.755 117.132C168.188 117.63 167.448 117.885 166.694 117.842H155.794V98.693H166.694C167.448 98.6496 168.188 98.9048 168.755 99.4034C169.322 99.902 169.67 100.604 169.723 101.357Z" fill="#E67E22"/>
<path d="M241.558 111.757C246.34 113.437 251.474 113.858 256.466 112.979C261.457 112.099 266.138 109.949 270.058 106.736C280.041 98.357 283.172 84.552 285.718 71.769L293.251 33.96L277.48 44.82C266.138 52.63 254.541 60.689 246.688 72.001C238.835 83.313 235.407 98.754 241.717 110.994" fill="#E6E6E6"/>
<path d="M242.901 157.534C241.301 145.907 239.663 134.134 240.783 122.378C241.777 111.941 244.962 101.747 251.444 93.389C254.885 88.9606 259.072 85.1664 263.817 82.177C265.054 81.396 266.193 83.357 264.961 84.134C256.751 89.3225 250.402 96.984 246.827 106.014C242.879 116.056 242.245 127.003 242.927 137.67C243.338 144.121 244.21 150.53 245.089 156.93C245.158 157.219 245.115 157.524 244.968 157.783C244.821 158.042 244.581 158.235 244.297 158.324C244.007 158.402 243.698 158.363 243.437 158.214C243.176 158.066 242.984 157.821 242.903 157.532L242.901 157.534Z" fill="#F2F2F2"/>
<path d="M258.278 136.957C260.329 140.074 263.148 142.611 266.464 144.322C269.78 146.033 273.481 146.862 277.21 146.728C286.794 146.273 294.784 139.584 301.976 133.234L323.25 114.451L309.17 113.777C299.045 113.293 288.658 112.841 279.014 115.963C269.37 119.085 260.478 126.6 258.716 136.583" fill="#E6E6E6"/>
<path d="M238.394 164.216C246.077 150.621 254.989 135.516 270.913 130.683C275.341 129.345 279.983 128.866 284.591 129.271C286.043 129.396 285.681 131.635 284.231 131.51C276.508 130.869 268.799 132.908 262.403 137.285C256.248 141.474 251.456 147.298 247.403 153.475C244.919 157.258 242.693 161.202 240.467 165.14C239.754 166.398 237.675 165.489 238.394 164.216Z" fill="#F2F2F2"/>
<path d="M226.084 178.526C226.343 175.526 227.42 172.655 229.197 170.225C230.975 167.795 233.385 165.9 236.166 164.745V156.886H249.348V164.993C251.992 166.204 254.267 168.095 255.942 170.472C257.616 172.85 258.631 175.629 258.881 178.526L261.981 214.557H222.981L226.084 178.526Z" fill="#F2F2F2"/>
<path d="M476.193 214.496L470.418 212.064L466.456 183.113H413.698L409.404 211.946L404.237 214.529C403.99 214.653 403.792 214.856 403.675 215.107C403.558 215.357 403.529 215.639 403.593 215.908C403.656 216.177 403.808 216.416 404.025 216.588C404.242 216.759 404.51 216.853 404.786 216.853H475.717C476 216.853 476.275 216.755 476.494 216.576C476.714 216.396 476.864 216.146 476.92 215.869C476.976 215.591 476.934 215.303 476.802 215.052C476.669 214.802 476.454 214.605 476.193 214.495V214.496Z" fill="#E6E6E6"/>
<path d="M569.947 186.965H310.786C309.426 186.962 308.123 186.42 307.163 185.457C306.202 184.495 305.663 183.191 305.663 181.831V145.286H575.07V181.831C575.07 183.191 574.531 184.495 573.57 185.457C572.61 186.42 571.307 186.962 569.947 186.965Z" fill="#CCCCCC"/>
<path d="M575.341 162.558H305.427V6.189C305.43 4.54829 306.083 2.97564 307.243 1.81558C308.404 0.655521 309.976 0.00264372 311.617 0H569.151C570.792 0.00264372 572.365 0.655521 573.525 1.81558C574.685 2.97564 575.338 4.54829 575.341 6.189V162.558Z" fill="#090814"/>
<path d="M559.22 151.209H321.548C320.283 151.208 319.07 150.704 318.175 149.81C317.281 148.915 316.777 147.702 316.776 146.437V16.121C316.777 14.8558 317.281 13.6428 318.175 12.7482C319.07 11.8535 320.283 11.3503 321.548 11.349H559.22C560.485 11.3503 561.698 11.8535 562.593 12.7482C563.488 13.6428 563.991 14.8558 563.992 16.121V146.441C563.991 147.706 563.488 148.919 562.593 149.814C561.698 150.708 560.485 151.212 559.22 151.213V151.209Z" fill="white"/>
<path d="M496.621 197.194C498.156 195.777 499.983 194.714 501.973 194.079C503.963 193.444 506.068 193.254 508.14 193.521C510.212 193.788 512.2 194.506 513.965 195.624C515.729 196.742 517.227 198.234 518.352 199.994L550.5 194.278L558.738 212.967L513.226 220.394C510.145 222.083 506.552 222.585 503.126 221.804C499.701 221.024 496.68 219.015 494.635 216.157C492.591 213.3 491.664 209.792 492.031 206.298C492.398 202.803 494.033 199.565 496.626 197.194H496.621Z" fill="#FFB6B6"/>
<path d="M526.385 221.053L559.9 220.635L564.142 220.578L632.329 219.719C632.329 219.719 650.846 202.054 666.97 183.866L664.709 167.519C662.505 151.477 654.547 136.783 642.317 126.17C619.224 141.601 605.832 172.143 605.832 172.143L563.553 182.255L559.323 183.266L533.053 189.544L526.385 221.053Z" fill="#E67E22"/>
<path d="M697.952 321.523H635.392C635.392 324.204 567.006 326.379 567.006 326.379C565.497 327.515 564.121 328.818 562.906 330.264C559.255 334.618 557.26 340.121 557.272 345.803V349.688C557.274 356.127 559.833 362.301 564.386 366.854C568.939 371.407 575.113 373.966 581.552 373.968H697.952C704.39 373.963 710.562 371.403 715.115 366.851C719.667 362.298 722.227 356.126 722.232 349.688V345.803C722.223 339.366 719.662 333.196 715.111 328.644C710.559 324.093 704.389 321.532 697.952 321.523Z" fill="#E4E4E4"/>
<path d="M652.459 373.004H627.207V518.758H652.459V373.004Z" fill="#E4E4E4"/>
<path d="M555.336 517.871C555.336 520.599 593.601 518.926 640.803 518.926C688.005 518.926 726.27 520.599 726.27 517.871C726.27 515.143 688.005 493.506 640.803 493.506C593.601 493.506 555.336 515.142 555.336 517.871Z" fill="#E4E4E4"/>
<path d="M538.373 501.217H519.579L510.639 428.729H538.375L538.373 501.217Z" fill="#FFB6B6"/>
<path d="M482.828 501.217H464.034L455.094 428.729H482.83L482.828 501.217Z" fill="#FFB6B6"/>
<path d="M651.175 83.892C669.221 83.892 683.851 69.2625 683.851 51.216C683.851 33.1695 669.221 18.54 651.175 18.54C633.129 18.54 618.499 33.1695 618.499 51.216C618.499 69.2625 633.129 83.892 651.175 83.892Z" fill="#FFB6B6"/>
<path d="M704.061 275.102C704.061 275.102 715.025 333.077 673.309 340.46C631.593 347.843 571.37 353.032 571.37 353.032L544.333 479.199L508.003 475.955C508.003 475.955 512.835 324.078 524.717 312.196C536.599 300.314 611.7 264.739 611.7 264.739L704.061 275.102Z" fill="#090814"/>
<path d="M622.587 250.804L604.342 269.104C604.342 269.104 472.606 290.327 467.524 320.753C459.851 366.69 450.789 466.584 450.789 466.584L490.397 463.613L505.928 350.061L569.3 335.646L641.4 296.353L622.587 250.804Z" fill="#090814"/>
<path d="M682.619 31.711C679.391 25.625 675.291 13.496 668.784 11.246C665.168 10.047 661.431 9.25088 657.641 8.872L646.575 13.128L652.598 8.44401C651.425 8.37734 650.253 8.32034 649.082 8.27301L641.615 11.145L645.435 8.17401C638.474 8.10301 631.289 8.82601 625.895 13.064C621.295 16.677 616.741 30.364 616.004 36.164C615.217 41.7133 615.492 47.3617 616.816 52.808L618.707 54.608C619.369 53.0914 619.866 51.5084 620.191 49.886C620.869 46.8545 622.171 43.9976 624.014 41.4971C625.857 38.9966 628.201 36.9076 630.896 35.363L630.996 35.305C634.167 33.52 638.016 33.605 641.652 33.733L658.925 34.355C663.081 34.505 667.555 34.768 670.795 37.374C672.854 39.2969 674.473 41.6421 675.541 44.249C677.151 47.498 680.297 59.749 680.297 59.749C680.297 59.749 682.077 57.436 682.93 59.157C684.298 54.6649 685.13 50.0266 685.408 45.339C685.681 40.631 684.72 35.9332 682.619 31.711Z" fill="#090814"/>
<path d="M796.906 65.567C794.822 65.7048 792.793 66.2978 790.963 67.3042C789.133 68.3106 787.546 69.706 786.313 71.3921C785.081 73.0783 784.233 75.0141 783.829 77.0633C783.425 79.1125 783.476 81.2254 783.977 83.253L757.697 102.636L765.577 121.476L802.3 93.582C805.652 92.5147 808.495 90.2548 810.292 87.2307C812.089 84.2065 812.713 80.6283 812.048 77.1743C811.382 73.7203 809.472 70.6307 806.68 68.4909C803.888 66.3511 800.408 65.3101 796.9 65.565L796.906 65.567Z" fill="#FFB6B6"/>
<path d="M792.677 105.136L726.804 178.295C726.804 178.295 695.304 168.21 670.939 157.277L659.994 123.661C657.452 115.863 656.368 107.663 656.794 99.472C690.568 90.485 729.851 123.925 729.851 123.925L779.16 85.301L792.677 105.136Z" fill="#E67E22"/>
<path d="M638.97 280.505C627.218 276.445 615.07 272.248 601.957 270.672L601.394 270.604L601.549 270.059C615.118 222.416 611.731 191.94 605.082 146.159C603.668 136.284 605.485 126.217 610.263 117.46C615.04 108.703 622.521 101.725 631.589 97.569L631.669 97.533L669.106 95.154L669.191 95.149L696.419 103.157C700.336 104.318 703.764 106.73 706.179 110.025C708.593 113.321 709.861 117.317 709.787 121.401C709.487 136.457 710.117 153.266 710.78 171.061C712.266 210.985 713.802 252.268 705.08 279.053L705.034 279.193L704.918 279.284C696.903 285.812 686.862 289.339 676.526 289.257C664.309 289.258 651.84 284.95 638.97 280.505Z" fill="#E67E22"/>
<path d="M879.231 522.591H1.27304C0.573041 522.591 0.0010376 521.812 0.0010376 520.85C0.0010376 519.888 0.571041 519.109 1.27304 519.109H879.231C879.931 519.109 880.503 519.888 880.503 520.85C880.503 521.812 879.934 522.591 879.231 522.591Z" fill="#CCCCCC"/>
<path d="M477.877 492.023C479.725 490.071 481.429 487.989 482.977 485.792C485.936 481.692 488.562 502.704 488.562 502.704C488.562 502.704 491.41 511.249 490.698 515.521C489.986 519.793 473.609 519.793 470.761 519.081C467.913 518.369 453.672 519.081 453.672 519.081H432.306C413.793 510.537 432.306 504.84 432.306 504.84C438.006 504.128 457.228 486.327 457.228 486.327L461.5 478.495C464.348 477.783 467.2 488.464 467.2 488.464L477.877 492.023Z" fill="#090814"/>
<path d="M533.163 492.023C535.011 490.071 536.715 487.989 538.263 485.792C541.222 481.692 543.848 502.704 543.848 502.704C543.848 502.704 546.696 511.249 545.984 515.521C545.272 519.793 528.895 519.793 526.047 519.081C523.199 518.369 508.958 519.081 508.958 519.081H487.592C469.079 510.537 487.592 504.84 487.592 504.84C493.292 504.128 512.514 486.327 512.514 486.327L516.786 478.495C519.634 477.783 522.486 488.464 522.486 488.464L533.163 492.023Z" fill="#090814"/>
</g>
<defs>
<clipPath id="clip0_1_2">
<rect width="880.503" height="522.591" fill="white"/>
</clipPath>
</defs>
</svg>
